# xmcd CD database file
#
# Track frame offsets:
#	150
#	22437
#	43202
#	61630
#	78505
#	98792
#	117275
#	130597
#	146345
#	161947
#	178737
#	198280
#	217675
#	235512
#	254582
#	271965
#
# Disc length: 3920 seconds
#
# Revision: 1
# Processed by: cddbd v1.4PL0 Copyright (c) Steve Scherf et al.
# Submitted via: CDex 1.40Beta9
#
DISCID=df0f4e10
DTITLE=LeAnn Rimes - Sittin' On Top Of The World 
DYEAR=2000
DGENRE=Vocal
TTITLE0=How Do I Live
TTITLE1=Commitment 
TTITLE2=Looking Through Your Eyes
TTITLE3=Undeniable
TTITLE4=Feels Like Home 
TTITLE5=Surrender
TTITLE6=These Arms of Mine
TTITLE7=Nothin' New Under the Moon
TTITLE8=When Am I Gonna Get Over You 
TTITLE9=Rock Me 
TTITLE10=More Than Anyone Desires 
TTITLE11=Intensive
TTITLE12=All the Lovin' And Hurtin' 
TTITLE13=Sittin' On Top Of The World
TTITLE14=The Heart Never Forgets 
TTITLE15=Purple Rain 
EXTD=YEAR: 2000 ID3G: 28
EXTT0=
EXTT1=
EXTT2=
EXTT3=
EXTT4=
EXTT5=
EXTT6=
EXTT7=
EXTT8=
EXTT9=
EXTT10=
EXTT11=
EXTT12=
EXTT13=
EXTT14=
EXTT15=
PLAYORDER=
